solid OpenSCAD_Model
  facet normal -1 0 0
    outer loop
      vertex 0 0 0
      vertex 0 15 7
      vertex 0 15 0
    endloop
  endfacet
  facet normal -1 -0 0
    outer loop
      vertex 0 15 7
      vertex 0 0 0
      vertex 0 0 7
    endloop
  endfacet
  facet normal 0 0 1
    outer loop
      vertex 215 15 7
      vertex 212.5 12.5 7
      vertex 215 0 7
    endloop
  endfacet
  facet normal 0 0 1
    outer loop
      vertex 215 15 7
      vertex 2.5 12.5 7
      vertex 212.5 12.5 7
    endloop
  endfacet
  facet normal 0 0 1
    outer loop
      vertex 2.5 12.5 7
      vertex 0 15 7
      vertex 2.5 2.5 7
    endloop
  endfacet
  facet normal -0 0 1
    outer loop
      vertex 0 15 7
      vertex 2.5 12.5 7
      vertex 215 15 7
    endloop
  endfacet
  facet normal -0 0 1
    outer loop
      vertex 212.5 2.5 7
      vertex 215 0 7
      vertex 212.5 12.5 7
    endloop
  endfacet
  facet normal -0 0 1
    outer loop
      vertex 2.5 2.5 7
      vertex 215 0 7
      vertex 212.5 2.5 7
    endloop
  endfacet
  facet normal 0 0 1
    outer loop
      vertex 2.5 2.5 7
      vertex 0 0 7
      vertex 215 0 7
    endloop
  endfacet
  facet normal 0 0 1
    outer loop
      vertex 0 0 7
      vertex 2.5 2.5 7
      vertex 0 15 7
    endloop
  endfacet
  facet normal 1 -0 0
    outer loop
      vertex 215 0 7
      vertex 215 15 0
      vertex 215 15 7
    endloop
  endfacet
  facet normal 1 0 0
    outer loop
      vertex 215 15 0
      vertex 215 0 7
      vertex 215 0 0
    endloop
  endfacet
  facet normal 0 1 -0
    outer loop
      vertex 215 15 0
      vertex 0 15 7
      vertex 215 15 7
    endloop
  endfacet
  facet normal 0 1 0
    outer loop
      vertex 0 15 7
      vertex 215 15 0
      vertex 0 15 0
    endloop
  endfacet
  facet normal 0 0 -1
    outer loop
      vertex 0 0 0
      vertex 215 15 0
      vertex 215 0 0
    endloop
  endfacet
  facet normal -0 0 -1
    outer loop
      vertex 215 15 0
      vertex 0 0 0
      vertex 0 15 0
    endloop
  endfacet
  facet normal 0 -1 0
    outer loop
      vertex 0 0 0
      vertex 215 0 7
      vertex 0 0 7
    endloop
  endfacet
  facet normal 0 -1 -0
    outer loop
      vertex 215 0 7
      vertex 0 0 0
      vertex 215 0 0
    endloop
  endfacet
  facet normal 1 -0 0
    outer loop
      vertex 2.5 2.5 7
      vertex 2.5 12.5 2
      vertex 2.5 12.5 7
    endloop
  endfacet
  facet normal 1 0 0
    outer loop
      vertex 2.5 12.5 2
      vertex 2.5 2.5 7
      vertex 2.5 2.5 2
    endloop
  endfacet
  facet normal -1 0 0
    outer loop
      vertex 212.5 2.5 2
      vertex 212.5 12.5 7
      vertex 212.5 12.5 2
    endloop
  endfacet
  facet normal -1 -0 0
    outer loop
      vertex 212.5 12.5 7
      vertex 212.5 2.5 2
      vertex 212.5 2.5 7
    endloop
  endfacet
  facet normal -0 0 1
    outer loop
      vertex 2.5 12.5 2
      vertex 212.5 2.5 2
      vertex 212.5 12.5 2
    endloop
  endfacet
  facet normal 0 0 1
    outer loop
      vertex 212.5 2.5 2
      vertex 2.5 12.5 2
      vertex 2.5 2.5 2
    endloop
  endfacet
  facet normal 0 1 -0
    outer loop
      vertex 212.5 2.5 2
      vertex 2.5 2.5 7
      vertex 212.5 2.5 7
    endloop
  endfacet
  facet normal 0 1 0
    outer loop
      vertex 2.5 2.5 7
      vertex 212.5 2.5 2
      vertex 2.5 2.5 2
    endloop
  endfacet
  facet normal 0 -1 0
    outer loop
      vertex 2.5 12.5 2
      vertex 212.5 12.5 7
      vertex 2.5 12.5 7
    endloop
  endfacet
  facet normal 0 -1 -0
    outer loop
      vertex 212.5 12.5 7
      vertex 2.5 12.5 2
      vertex 212.5 12.5 2
    endloop
  endfacet
endsolid OpenSCAD_Model
